<?xml version="1.0" encoding="iso-8859-1"?>
<!-- Generator: Adobe Illustrator 19.0.0, SVG Export Plug-In . SVG Version: 6.00 Build 0)  -->
<svg version="1.1" id="Layer_1" xmlns="http://www.w3.org/2000/svg" xmlns:xlink="http://www.w3.org/1999/xlink" x="0px" y="0px"
	 viewBox="0 0 496 496" style="enable-background:new 0 0 496 496;" xml:space="preserve">
<path style="fill:#8EA5A4;" d="M496,476.8c0,10.4-8.8,19.2-19.2,19.2H19.2C8.8,496,0,487.2,0,476.8V19.2C0,8.8,8.8,0,19.2,0h457.6
	C487.2,0,496,8.8,496,19.2V476.8z"/>
<path style="fill:#FDFFFF;" d="M16,80v381.6C16,472,23.2,480,32.8,480h430.4c9.6,0,16.8-8,16.8-18.4V80H16z"/>
<path style="fill:#E8EFEF;" d="M463.2,480c9.6,0,16.8-8.8,16.8-18.4V80H16"/>
<rect x="16" y="80" style="fill:#DCE5E5;" width="464" height="24"/>
<path style="fill:#FDFFFF;" d="M395.2,40c0,9.6-8,16-17.6,16H32c-9.6,0-8-6.4-8-16l0,0c0-9.6-1.6-16,8-16h345.6
	C387.2,24,395.2,30.4,395.2,40L395.2,40z"/>
<path style="fill:#E6EFEF;" d="M24,40.8L24,40.8c0-9.6-1.6-16.8,8-16.8h345.6c9.6,0,17.6,7.2,17.6,16.8l0,0"/>
<circle style="opacity:0.4;fill:#B1BCBC;enable-background:new    ;" cx="426.4" cy="41.6" r="8.8"/>
<circle style="fill:#FFFFFF;" cx="426.4" cy="37.6" r="8.8"/>
<path style="fill:#E8EFEE;" d="M420,31.2c3.2-3.2,9.6-3.2,12.8,0c3.2,3.2,3.2,9.6,0,12.8"/>
<circle style="opacity:0.4;fill:#B1BCBC;enable-background:new    ;" cx="462.4" cy="41.6" r="8.8"/>
<circle style="fill:#FFFFFF;" cx="462.4" cy="37.6" r="8.8"/>
<path style="fill:#E8EFEE;" d="M456,31.2c3.2-3.2,9.6-3.2,12.8,0c3.2,3.2,3.2,9.6,0,12.8"/>
<path style="fill:#8EA5A4;" d="M100.8,32l-0.8-0.8h-2.4c-0.8,0-0.8,0-0.8,0.8l-1.6,6.4l0,0l0,0L92.8,32c-0.8,0-0.8,0-1.6,0h-2.4
	C88,32,88,32,88,32.8L85.6,40l0,0l0,0L84,33.6c0-1.6,0-1.6-0.8-1.6h-2.4H80h-0.8h-2.4C76,32,76,32,76,32.8l-1.6,6.4l0,0l0,0L72,32.8
	c0-0.8-0.8-0.8-1.6-0.8h-1.6c-0.8,0-0.8,0-1.6,0.8l-1.6,6.4l0,0l0,0l-2.4-6.4c0-0.8,0-0.8-0.8-0.8H60h-0.8c0,0,0,0-0.8,0H56
	c0,0-0.8,0-0.8,0.8l-1.6,6.4l0,0l0,0l-2.4-6.4c0-0.8-0.8-0.8-1.6-0.8H48c-0.8,0-0.8,0-0.8,0.8l-2.4,6.4l0,0l0,0l-1.6-6.4
	C42.4,32,42.4,32,41.6,32h-2.4c0,0-0.8,0-0.8,0.8s0,0.8,0,0.8l4,13.6c0,0.8,0.8,0.8,0.8,0.8h2.4c0.8,0,0.8,0,0.8-0.8l2.4-7.2
	c0,0,0,0,0-0.8c0,0,0,0,0,0.8l2.4,6.4c0,0.8,0.8,0.8,0.8,0.8h2.4c0.8,0,0.8,0,0.8-0.8l4-12l3.2,12c0,0.8,0.8,0.8,0.8,0.8h2.4
	c0.8,0,0.8,0,0.8-0.8l3.2-6.4c0,0,0,0,0-0.8c0,0,0,0,0,0.8l2.4,6.4c0,0.8,0.8,0.8,0.8,0.8h2.4c0.8,0,0.8,0,0.8-0.8l4-12l3.2,12
	c0,0.8,0.8,0.8,0.8,0.8h2.4c0.8,0,0.8,0,0.8-0.8l3.2-6.4c0,0,0,0,0-0.8c0,0,0,0,0,0.8l2.4,6.4c0,0.8,0.8,0.8,0.8,0.8H96
	c0.8,0,0.8,0,0.8-0.8l4-13.6C101.6,32.8,101.6,32,100.8,32z"/>
<g>
	<path style="fill:#DCE5E5;" d="M294.4,306.4c-9.6,0-18.4-4-25.6-11.2l-17.6-17.6c-5.6-6.4-9.6-13.6-11.2-21.6
		c-0.8-8.8,1.6-17.6,8-23.2l67.2-67.2c4.8-4.8,12-8,20-8c9.6,0,18.4,4,25.6,11.2l17.6,17.6c7.2,7.2,11.2,16.8,11.2,25.6
		c0,8-3.2,14.4-8,20l-67.2,67.2C309.6,304,302.4,306.4,294.4,306.4z M335.2,180.8c-0.8,0-2.4,0-2.4,0.8l-67.2,67.2
		c-1.6,1.6-1.6,3.2-1.6,4c0,2.4,1.6,5.6,4,8l17.6,17.6c2.4,2.4,6.4,4,8.8,4c0.8,0,2.4,0,3.2-0.8l67.2-67.2c0.8-0.8,0.8-1.6,0.8-2.4
		c0-2.4-0.8-5.6-4-8.8L344,184.8C341.6,181.6,337.6,180.8,335.2,180.8z"/>
	<path style="fill:#DCE5E5;" d="M165.6,435.2c-9.6,0-18.4-4-25.6-11.2l-17.6-17.6C116,400,112,392,111.2,384
		c-0.8-8.8,1.6-17.6,8-23.2l67.2-67.2c4.8-4.8,12-8,20-8c9.6,0,18.4,4,25.6,11.2l17.6,17.6c13.6,13.6,15.2,34.4,3.2,45.6l-68,67.2
		C180.8,432.8,173.6,435.2,165.6,435.2z M206.4,309.6c-0.8,0-2.4,0-3.2,0.8L136,377.6c-0.8,0.8-0.8,3.2-0.8,4c0,2.4,1.6,5.6,4,8
		l17.6,17.6c2.4,2.4,6.4,4,8.8,4c0.8,0,2.4,0,2.4-0.8l68-67.2c1.6-1.6,0.8-7.2-3.2-12l-17.6-17.6
		C212.8,311.2,209.6,309.6,206.4,309.6z"/>
	<path style="fill:#DCE5E5;" d="M219.2,339.2c-3.2,0-6.4-0.8-8.8-3.2c-4.8-4.8-4.8-12,0-16.8l19.2-19.2c4.8-4.8,12-4.8,16.8,0
		c4.8,4.8,4.8,12,0,16.8L228,336C225.6,338.4,222.4,339.2,219.2,339.2z"/>
</g>
<g>
	<path style="fill:#D31C70;" d="M294.4,284.8c-9.6,0-18.4-4-25.6-11.2L251.2,256c-6.4-6.4-10.4-14.4-11.2-22.4
		c-0.8-8.8,1.6-17.6,8-23.2l67.2-67.2c4.8-4.8,12-8,20-8c9.6,0,18.4,4,25.6,11.2l17.6,17.6c7.2,7.2,11.2,16.8,11.2,25.6
		c0,8-3.2,14.4-8,20l-67.2,67.2C309.6,282.4,302.4,284.8,294.4,284.8z M335.2,159.2c-0.8,0-2.4,0-2.4,0.8l-67.2,67.2
		c-1.6,1.6-1.6,3.2-1.6,4c0,2.4,1.6,5.6,4,8l17.6,17.6c2.4,2.4,6.4,4,8.8,4c0.8,0,2.4,0,3.2-0.8l67.2-67.2c0.8-0.8,0.8-1.6,0.8-2.4
		c0-2.4-0.8-5.6-4-8.8L344,163.2C341.6,160,337.6,159.2,335.2,159.2z"/>
	<path style="fill:#D31C70;" d="M165.6,414.4c-9.6,0-18.4-4-25.6-11.2l-17.6-17.6c-6.4-6.4-10.4-14.4-11.2-22.4
		c-0.8-8.8,1.6-17.6,8-23.2l67.2-67.2c4.8-4.8,12-8,20-8c9.6,0,18.4,4,25.6,11.2l17.6,17.6c13.6,13.6,15.2,34.4,3.2,45.6l-68,67.2
		C180.8,411.2,173.6,414.4,165.6,414.4z M206.4,288c-0.8,0-2.4,0-3.2,0.8l-67.2,68c-0.8,0.8-0.8,3.2-0.8,4c0,2.4,1.6,5.6,4,8
		l17.6,17.6c2.4,2.4,6.4,4,8.8,4c0.8,0,2.4,0,2.4-0.8l68-67.2c1.6-1.6,0.8-7.2-3.2-12l-17.6-17.6C212.8,289.6,209.6,288,206.4,288z"
		/>
</g>
<path style="fill:#5DBA02;" d="M219.2,317.6c-3.2,0-6.4-0.8-8.8-3.2c-4.8-4.8-4.8-12,0-16.8l19.2-19.2c4.8-4.8,12-4.8,16.8,0
	c4.8,4.8,4.8,12,0,16.8l-19.2,19.2C225.6,316.8,222.4,317.6,219.2,317.6z"/>
<g>
</g>
<g>
</g>
<g>
</g>
<g>
</g>
<g>
</g>
<g>
</g>
<g>
</g>
<g>
</g>
<g>
</g>
<g>
</g>
<g>
</g>
<g>
</g>
<g>
</g>
<g>
</g>
<g>
</g>
</svg>
